<?xml version="1.0" encoding="UTF-8"?>
<svg id="Layer_2" data-name="Layer 2" xmlns="http://www.w3.org/2000/svg" viewBox="0 0 1437.25 809.69">
  <defs>
    <style>
      .cls-1, .cls-2, .cls-3, .cls-4 {
        isolation: isolate;
      }

      .cls-1, .cls-2, .cls-4 {
        font-size: 13px;
      }

      .cls-1, .cls-5, .cls-6 {
        fill: #d7d7d9;
      }

      .cls-1, .cls-6, .cls-4 {
        font-family: CascadiaCode-Regular, 'Cascadia Code';
      }

      .cls-7 {
        fill: #222;
      }

      .cls-7, .cls-8, .cls-9, .cls-10, .cls-5 {
        stroke-width: 0px;
      }

      .cls-8 {
        fill: #37383f;
      }

      .cls-2 {
        fill: #999;
      }

      .cls-2, .cls-3 {
        font-family: CascadiaCode-Italic, 'Cascadia Code';
        font-style: italic;
        font-variation-settings: 'wght' 400;
      }

      .cls-9 {
        fill: #fec311;
      }

      .cls-10 {
        fill: #666;
      }

      .cls-3 {
        fill: #000;
        font-size: 14px;
      }

      .cls-6 {
        font-size: 29.33px;
        stroke: #d7d7d9;
      }

      .cls-6, .cls-11 {
        stroke-miterlimit: 10;
      }

      .cls-11 {
        fill: none;
        stroke: #141414;
        stroke-width: 2px;
      }

      .cls-4 {
        fill: #fff;
      }
    </style>
  </defs>
  <g id="Layer_1-2" data-name="Layer 1">
    <path class="cls-9" d="M1407.25,809.69H30c-16.57,0-30-13.43-30-30V67.41h1437.25v712.28c0,16.57-13.43,30-30,30Z"/>
    <path class="cls-7" d="M30,0h1377.25c16.56,0,30,13.44,30,30v37.41H0V30C0,13.44,13.44,0,30,0Z"/>
    <text class="cls-6" transform="translate(426.45 42.32)"><tspan x="0" y="0">E-Challan - DATABASE DESIGN SCHEMA</tspan></text>
    <path class="cls-11" d="M356.61,172.55h-24.13c-2.76,0-4.13,1.38-4.13,4.13v23.73c0,2.76-1.38,4.13-4.13,4.13h-24.13,24.13c2.76,0,4.13-1.38,4.13-4.13v-23.73c0-2.76,1.38-4.13,4.13-4.13h24.13ZM346.61,168.55v8M300.08,200.55l10,4-10,4"/>
    <text class="cls-3" transform="translate(345.9 162.55)"><tspan x="0" y="0">1</tspan></text>
    <text class="cls-3" transform="translate(303.08 194.55)"><tspan x="0" y="0">*</tspan></text>
    <path class="cls-11" d="M88.6,172.55h-10c-6.67,0-10-3.33-10-10v-54.64c0-6.67,3.33-10,10-10h590.57c6.67,0,10,3.33,10,10v182.64c0,6.67,3.33,10,10,10h10-10c-6.67,0-10-3.33-10-10V107.91c0-6.67-3.33-10-10-10H78.6c-6.67,0-10,3.33-10,10v54.64c0,6.67,3.33,10,10,10h10ZM78.6,168.55v8M699.18,296.55l-10,4,10,4"/>
    <text class="cls-3" transform="translate(77.89 162.55)"><tspan x="0" y="0">1</tspan></text>
    <text class="cls-3" transform="translate(688.46 290.55)"><tspan x="0" y="0">*</tspan></text>
    <path class="cls-11" d="M603.47,172.55h37.85c6.67,0,10,3.33,10,10v140c0,6.67,3.33,10,10,10h37.85-37.85c-6.67,0-10-3.33-10-10v-140c0-6.67-3.33-10-10-10h-37.85ZM613.47,168.55v8M699.18,328.55l-10,4,10,4"/>
    <text class="cls-3" transform="translate(606.47 162.55)"><tspan x="0" y="0">1</tspan></text>
    <text class="cls-3" transform="translate(688.46 322.55)"><tspan x="0" y="0">*</tspan></text>
    <path class="cls-11" d="M972.97,172.55h37.86c6.67,0,10,3.33,10,10v8.51c0,6.67,3.33,10,10,10h37.86-37.86c-6.67,0-10-3.33-10-10v-8.51c0-6.67-3.33-10-10-10h-37.86ZM982.97,168.55v8M1068.7,197.06l-10,4,10,4"/>
    <text class="cls-3" transform="translate(975.97 162.55)"><tspan x="0" y="0">1</tspan></text>
    <text class="cls-3" transform="translate(1057.99 191.06)"><tspan x="0" y="0">*</tspan></text>
    <path class="cls-11" d="M1307.22,496.59h27.56c5.04,0,7.56-2.52,7.56-7.56v-245.97c0-6.67-3.33-10-10-10h-10,10c6.67,0,10,3.33,10,10v245.97c0,5.04-2.52,7.56-7.56,7.56h-27.56ZM1317.22,492.59v8M1322.35,229.06l10,4-10,4"/>
    <text class="cls-3" transform="translate(1310.22 486.59)"><tspan x="0" y="0">1</tspan></text>
    <text class="cls-3" transform="translate(1325.35 223.06)"><tspan x="0" y="0">*</tspan></text>
    <path class="cls-11" d="M307.76,478.55h10c6.67,0,10,3.33,10,10v276.64c0,6.67,3.33,10,10,10h700.94c6.67,0,10-3.33,10-10v-426.13c0-6.67,3.33-10,10-10h10-10c-6.67,0-10,3.33-10,10v426.13c0,6.67-3.33,10-10,10H337.76c-6.67,0-10-3.33-10-10v-276.64c0-6.67-3.33-10-10-10h-10ZM317.76,474.55v8M1068.7,325.06l-10,4,10,4"/>
    <text class="cls-3" transform="translate(310.76 468.55)"><tspan x="0" y="0">1</tspan></text>
    <text class="cls-3" transform="translate(1057.99 319.06)"><tspan x="0" y="0">*</tspan></text>
    <path class="cls-11" d="M1322.35,169.06h36.3c6.67,0,10,3.33,10,10v527.73c0,6.67-3.33,10-10,10h-693.79c-6.67,0-10-3.33-10-10v-58.24c0-6.67-3.33-10-10-10h-10,10c6.67,0,10,3.33,10,10v58.24c0,6.67,3.33,10,10,10h693.79c6.67,0,10-3.33,10-10V179.06c0-6.67-3.33-10-10-10h-36.3ZM1332.35,165.06v8M634.86,634.55l10,4-10,4"/>
    <text class="cls-3" transform="translate(1325.35 159.06)"><tspan x="0" y="0">1</tspan></text>
    <text class="cls-3" transform="translate(637.86 628.55)"><tspan x="0" y="0">*</tspan></text>
    <path class="cls-11" d="M1068.7,169.06h-30.7c-6.67,0-10,3.33-10,10v289.49c0,6.67-3.33,10-10,10h-30.7,30.7c6.67,0,10-3.33,10-10V179.06c0-6.67,3.33-10,10-10h30.7ZM1058.7,165.06v8M987.29,474.55l10,4-10,4"/>
    <text class="cls-3" transform="translate(1057.99 159.06)"><tspan x="0" y="0">1</tspan></text>
    <text class="cls-3" transform="translate(990.29 468.55)"><tspan x="0" y="0">*</tspan></text>
    <rect class="cls-7" x="88.6" y="124.55" width="211.48" height="32"/>
    <text class="cls-4" transform="translate(98.6 143.8)"><tspan x="0" y="0">Vehicles</tspan></text>
    <rect class="cls-8" x="88.6" y="156.55" width="211.48" height="32"/>
    <text class="cls-1" transform="translate(98.6 175.8)"><tspan x="0" y="0">VehicleID</tspan></text>
    <path class="cls-5" d="M177.07,166.79c1.63,0,2.95,1.32,2.95,2.95s-1.32,2.95-2.95,2.95c-.39,0-.76-.08-1.1-.21l-.87.87h-.66v.98h-.98v.98h-1.97v-1.97l2.75-2.75c-.08-.28-.13-.57-.13-.86,0-1.63,1.32-2.95,2.95-2.95ZM177.07,165.8c-2.17,0-3.94,1.76-3.94,3.94,0,.18.01.36.04.54l-2.52,2.52c-.09.09-.14.22-.14.35v2.66c0,.27.22.49.49.49h2.95c.27,0,.49-.22.49-.49v-.49h.49c.27,0,.49-.22.49-.49v-.41l.82-.82c.27.06.54.09.82.09,2.17,0,3.94-1.76,3.94-3.94s-1.76-3.94-3.94-3.94ZM177.07,168.76c0,.54.44.98.98.98s.98-.44.98-.98-.44-.98-.98-.98-.98.44-.98.98Z"/>
    <text class="cls-2" transform="translate(263.93 175.8)"><tspan x="0" y="0">int</tspan></text>
    <rect class="cls-8" x="88.6" y="188.55" width="211.48" height="32"/>
    <text class="cls-1" transform="translate(98.6 207.8)"><tspan x="0" y="0">OwnerID</tspan></text>
    <text class="cls-2" transform="translate(266.19 207.8)"><tspan x="0" y="0">int</tspan></text>
    <rect class="cls-8" x="88.6" y="220.55" width="211.48" height="32"/>
    <text class="cls-1" transform="translate(98.6 239.8)"><tspan x="0" y="0">PlateNumber</tspan></text>
    <path class="cls-10" d="M268.08,227.05h20s2,0,2,2v12s0,2-2,2h-20s-2,0-2-2v-12s0-2,2-2"/>
    <path class="cls-5" d="M276.89,239.55h-1.17l-4.75-7.56h-.05c.01.2.03.43.04.69.02.25.03.53.04.82.01.29.02.58.02.88v5.17h-.94v-9h1.16l4.73,7.53h.04c0-.14-.02-.35-.03-.61-.01-.27-.02-.55-.04-.86,0-.31-.01-.59-.01-.86v-5.21h.95v9Z"/>
    <path class="cls-5" d="M286.08,239.55h-1.17l-4.75-7.56h-.05c.01.2.03.43.04.69.02.25.03.53.04.82.01.29.02.58.02.88v5.17h-.94v-9h1.16l4.73,7.53h.04c0-.14-.02-.35-.03-.61-.01-.27-.02-.55-.04-.86,0-.31-.01-.59-.01-.86v-5.21h.95v9Z"/>
    <text class="cls-2" transform="translate(230.71 239.8)"><tspan x="0" y="0">text</tspan></text>
    <rect class="cls-8" x="88.6" y="252.55" width="211.48" height="32"/>
    <text class="cls-1" transform="translate(98.6 271.8)"><tspan x="0" y="0">Make</tspan></text>
    <path class="cls-10" d="M268.08,259.05h20s2,0,2,2v12s0,2-2,2h-20s-2,0-2-2v-12s0-2,2-2"/>
    <path class="cls-5" d="M276.89,271.55h-1.17l-4.75-7.56h-.05c.01.2.03.43.04.69.02.25.03.53.04.82.01.29.02.58.02.88v5.17h-.94v-9h1.16l4.73,7.53h.04c0-.14-.02-.35-.03-.61-.01-.27-.02-.55-.04-.86,0-.31-.01-.59-.01-.86v-5.21h.95v9Z"/>
    <path class="cls-5" d="M286.08,271.55h-1.17l-4.75-7.56h-.05c.01.2.03.43.04.69.02.25.03.53.04.82.01.29.02.58.02.88v5.17h-.94v-9h1.16l4.73,7.53h.04c0-.14-.02-.35-.03-.61-.01-.27-.02-.55-.04-.86,0-.31-.01-.59-.01-.86v-5.21h.95v9Z"/>
    <text class="cls-2" transform="translate(230.71 271.8)"><tspan x="0" y="0">text</tspan></text>
    <rect class="cls-8" x="88.6" y="284.55" width="211.48" height="32"/>
    <text class="cls-1" transform="translate(98.6 303.8)"><tspan x="0" y="0">Model</tspan></text>
    <path class="cls-10" d="M268.08,291.05h20s2,0,2,2v12s0,2-2,2h-20s-2,0-2-2v-12s0-2,2-2"/>
    <path class="cls-5" d="M276.89,303.55h-1.17l-4.75-7.56h-.05c.01.2.03.43.04.69.02.25.03.53.04.82.01.29.02.58.02.88v5.17h-.94v-9h1.16l4.73,7.53h.04c0-.14-.02-.35-.03-.61-.01-.27-.02-.55-.04-.86,0-.31-.01-.59-.01-.86v-5.21h.95v9Z"/>
    <path class="cls-5" d="M286.08,303.55h-1.17l-4.75-7.56h-.05c.01.2.03.43.04.69.02.25.03.53.04.82.01.29.02.58.02.88v5.17h-.94v-9h1.16l4.73,7.53h.04c0-.14-.02-.35-.03-.61-.01-.27-.02-.55-.04-.86,0-.31-.01-.59-.01-.86v-5.21h.95v9Z"/>
    <text class="cls-2" transform="translate(230.71 303.8)"><tspan x="0" y="0">text</tspan></text>
    <rect class="cls-8" x="88.6" y="316.55" width="211.48" height="32"/>
    <text class="cls-1" transform="translate(98.6 335.8)"><tspan x="0" y="0">Year</tspan></text>
    <path class="cls-10" d="M268.08,323.05h20s2,0,2,2v12s0,2-2,2h-20s-2,0-2-2v-12s0-2,2-2"/>
    <path class="cls-5" d="M276.89,335.55h-1.17l-4.75-7.56h-.05c.01.2.03.43.04.69.02.25.03.53.04.82.01.29.02.58.02.88v5.17h-.94v-9h1.16l4.73,7.53h.04c0-.14-.02-.35-.03-.61-.01-.27-.02-.55-.04-.86,0-.31-.01-.59-.01-.86v-5.21h.95v9Z"/>
    <path class="cls-5" d="M286.08,335.55h-1.17l-4.75-7.56h-.05c.01.2.03.43.04.69.02.25.03.53.04.82.01.29.02.58.02.88v5.17h-.94v-9h1.16l4.73,7.53h.04c0-.14-.02-.35-.03-.61-.01-.27-.02-.55-.04-.86,0-.31-.01-.59-.01-.86v-5.21h.95v9Z"/>
    <text class="cls-2" transform="translate(238.19 335.8)"><tspan x="0" y="0">int</tspan></text>
    <rect class="cls-8" x="88.6" y="348.55" width="211.48" height="32"/>
    <text class="cls-1" transform="translate(98.6 367.8)"><tspan x="0" y="0">Color</tspan></text>
    <path class="cls-10" d="M268.08,355.05h20s2,0,2,2v12s0,2-2,2h-20s-2,0-2-2v-12s0-2,2-2"/>
    <path class="cls-5" d="M276.89,367.55h-1.17l-4.75-7.56h-.05c.01.2.03.43.04.69.02.25.03.53.04.82.01.29.02.58.02.88v5.17h-.94v-9h1.16l4.73,7.53h.04c0-.14-.02-.35-.03-.61-.01-.27-.02-.55-.04-.86,0-.31-.01-.59-.01-.86v-5.21h.95v9Z"/>
    <path class="cls-5" d="M286.08,367.55h-1.17l-4.75-7.56h-.05c.01.2.03.43.04.69.02.25.03.53.04.82.01.29.02.58.02.88v5.17h-.94v-9h1.16l4.73,7.53h.04c0-.14-.02-.35-.03-.61-.01-.27-.02-.55-.04-.86,0-.31-.01-.59-.01-.86v-5.21h.95v9Z"/>
    <text class="cls-2" transform="translate(230.71 367.8)"><tspan x="0" y="0">text</tspan></text>
    <rect class="cls-7" x="356.61" y="124.55" width="246.85" height="32"/>
    <text class="cls-4" transform="translate(366.61 143.8)"><tspan x="0" y="0">Owners</tspan></text>
    <rect class="cls-8" x="356.61" y="156.55" width="246.85" height="32"/>
    <text class="cls-1" transform="translate(366.61 175.8)"><tspan x="0" y="0">OwnerID</tspan></text>
    <path class="cls-5" d="M434.7,166.79c1.63,0,2.95,1.32,2.95,2.95s-1.32,2.95-2.95,2.95c-.39,0-.76-.08-1.1-.21l-.87.87h-.66v.98h-.98v.98h-1.97v-1.97l2.75-2.75c-.08-.28-.13-.57-.13-.86,0-1.63,1.32-2.95,2.95-2.95ZM434.7,165.8c-2.17,0-3.94,1.76-3.94,3.94,0,.18.01.36.04.54l-2.52,2.52c-.09.09-.14.22-.14.35v2.66c0,.27.22.49.49.49h2.95c.27,0,.49-.22.49-.49v-.49h.49c.27,0,.49-.22.49-.49v-.41l.82-.82c.27.06.54.09.82.09,2.17,0,3.94-1.76,3.94-3.94s-1.76-3.94-3.94-3.94ZM434.7,168.76c0,.54.44.98.98.98s.98-.44.98-.98-.44-.98-.98-.98-.98.44-.98.98Z"/>
    <text class="cls-2" transform="translate(567.31 175.8)"><tspan x="0" y="0">int</tspan></text>
    <rect class="cls-8" x="356.61" y="188.55" width="246.85" height="32"/>
    <text class="cls-1" transform="translate(366.61 207.8)"><tspan x="0" y="0">FirstName</tspan></text>
    <path class="cls-10" d="M571.47,195.05h20s2,0,2,2v12s0,2-2,2h-20s-2,0-2-2v-12s0-2,2-2"/>
    <path class="cls-5" d="M580.28,207.55h-1.17l-4.75-7.56h-.05c.01.2.03.43.04.69.02.25.03.53.04.82.01.29.02.58.02.88v5.17h-.94v-9h1.16l4.73,7.53h.04c0-.14-.02-.35-.03-.61-.01-.27-.02-.55-.04-.86,0-.31-.01-.59-.01-.86v-5.21h.95v9Z"/>
    <path class="cls-5" d="M589.47,207.55h-1.17l-4.75-7.56h-.05c.01.2.03.43.04.69.02.25.03.53.04.82.01.29.02.58.02.88v5.17h-.94v-9h1.16l4.73,7.53h.04c0-.14-.02-.35-.03-.61-.01-.27-.02-.55-.04-.86,0-.31-.01-.59-.01-.86v-5.21h.95v9Z"/>
    <text class="cls-2" transform="translate(534.09 207.8)"><tspan x="0" y="0">text</tspan></text>
    <rect class="cls-8" x="356.61" y="220.55" width="246.85" height="32"/>
    <text class="cls-1" transform="translate(366.61 239.8)"><tspan x="0" y="0">LastName</tspan></text>
    <path class="cls-10" d="M571.47,227.05h20s2,0,2,2v12s0,2-2,2h-20s-2,0-2-2v-12s0-2,2-2"/>
    <path class="cls-5" d="M580.28,239.55h-1.17l-4.75-7.56h-.05c.01.2.03.43.04.69.02.25.03.53.04.82.01.29.02.58.02.88v5.17h-.94v-9h1.16l4.73,7.53h.04c0-.14-.02-.35-.03-.61-.01-.27-.02-.55-.04-.86,0-.31-.01-.59-.01-.86v-5.21h.95v9Z"/>
    <path class="cls-5" d="M589.47,239.55h-1.17l-4.75-7.56h-.05c.01.2.03.43.04.69.02.25.03.53.04.82.01.29.02.58.02.88v5.17h-.94v-9h1.16l4.73,7.53h.04c0-.14-.02-.35-.03-.61-.01-.27-.02-.55-.04-.86,0-.31-.01-.59-.01-.86v-5.21h.95v9Z"/>
    <text class="cls-2" transform="translate(534.09 239.8)"><tspan x="0" y="0">text</tspan></text>
    <rect class="cls-8" x="356.61" y="252.55" width="246.85" height="32"/>
    <text class="cls-1" transform="translate(366.61 271.8)"><tspan x="0" y="0">LicenseNumber</tspan></text>
    <path class="cls-10" d="M571.47,259.05h20s2,0,2,2v12s0,2-2,2h-20s-2,0-2-2v-12s0-2,2-2"/>
    <path class="cls-5" d="M580.28,271.55h-1.17l-4.75-7.56h-.05c.01.2.03.43.04.69.02.25.03.53.04.82.01.29.02.58.02.88v5.17h-.94v-9h1.16l4.73,7.53h.04c0-.14-.02-.35-.03-.61-.01-.27-.02-.55-.04-.86,0-.31-.01-.59-.01-.86v-5.21h.95v9Z"/>
    <path class="cls-5" d="M589.47,271.55h-1.17l-4.75-7.56h-.05c.01.2.03.43.04.69.02.25.03.53.04.82.01.29.02.58.02.88v5.17h-.94v-9h1.16l4.73,7.53h.04c0-.14-.02-.35-.03-.61-.01-.27-.02-.55-.04-.86,0-.31-.01-.59-.01-.86v-5.21h.95v9Z"/>
    <text class="cls-2" transform="translate(534.09 271.8)"><tspan x="0" y="0">text</tspan></text>
    <rect class="cls-8" x="356.61" y="284.55" width="246.85" height="32"/>
    <text class="cls-1" transform="translate(366.61 303.8)"><tspan x="0" y="0">LicenseType</tspan></text>
    <path class="cls-10" d="M571.47,291.05h20s2,0,2,2v12s0,2-2,2h-20s-2,0-2-2v-12s0-2,2-2"/>
    <path class="cls-5" d="M580.28,303.55h-1.17l-4.75-7.56h-.05c.01.2.03.43.04.69.02.25.03.53.04.82.01.29.02.58.02.88v5.17h-.94v-9h1.16l4.73,7.53h.04c0-.14-.02-.35-.03-.61-.01-.27-.02-.55-.04-.86,0-.31-.01-.59-.01-.86v-5.21h.95v9Z"/>
    <path class="cls-5" d="M589.47,303.55h-1.17l-4.75-7.56h-.05c.01.2.03.43.04.69.02.25.03.53.04.82.01.29.02.58.02.88v5.17h-.94v-9h1.16l4.73,7.53h.04c0-.14-.02-.35-.03-.61-.01-.27-.02-.55-.04-.86,0-.31-.01-.59-.01-.86v-5.21h.95v9Z"/>
    <text class="cls-2" transform="translate(534.09 303.8)"><tspan x="0" y="0">text</tspan></text>
    <rect class="cls-8" x="356.61" y="316.55" width="246.85" height="32"/>
    <text class="cls-1" transform="translate(366.61 335.8)"><tspan x="0" y="0">LicenseExpiryDate</tspan></text>
    <path class="cls-10" d="M571.47,323.05h20s2,0,2,2v12s0,2-2,2h-20s-2,0-2-2v-12s0-2,2-2"/>
    <path class="cls-5" d="M580.28,335.55h-1.17l-4.75-7.56h-.05c.01.2.03.43.04.69.02.25.03.53.04.82.01.29.02.58.02.88v5.17h-.94v-9h1.16l4.73,7.53h.04c0-.14-.02-.35-.03-.61-.01-.27-.02-.55-.04-.86,0-.31-.01-.59-.01-.86v-5.21h.95v9Z"/>
    <path class="cls-5" d="M589.47,335.55h-1.17l-4.75-7.56h-.05c.01.2.03.43.04.69.02.25.03.53.04.82.01.29.02.58.02.88v5.17h-.94v-9h1.16l4.73,7.53h.04c0-.14-.02-.35-.03-.61-.01-.27-.02-.55-.04-.86,0-.31-.01-.59-.01-.86v-5.21h.95v9Z"/>
    <text class="cls-2" transform="translate(530.36 335.8)"><tspan x="0" y="0">date</tspan></text>
    <rect class="cls-8" x="356.61" y="348.55" width="246.85" height="32"/>
    <text class="cls-1" transform="translate(366.61 367.8)"><tspan x="0" y="0">Address</tspan></text>
    <path class="cls-10" d="M571.47,355.05h20s2,0,2,2v12s0,2-2,2h-20s-2,0-2-2v-12s0-2,2-2"/>
    <path class="cls-5" d="M580.28,367.55h-1.17l-4.75-7.56h-.05c.01.2.03.43.04.69.02.25.03.53.04.82.01.29.02.58.02.88v5.17h-.94v-9h1.16l4.73,7.53h.04c0-.14-.02-.35-.03-.61-.01-.27-.02-.55-.04-.86,0-.31-.01-.59-.01-.86v-5.21h.95v9Z"/>
    <path class="cls-5" d="M589.47,367.55h-1.17l-4.75-7.56h-.05c.01.2.03.43.04.69.02.25.03.53.04.82.01.29.02.58.02.88v5.17h-.94v-9h1.16l4.73,7.53h.04c0-.14-.02-.35-.03-.61-.01-.27-.02-.55-.04-.86,0-.31-.01-.59-.01-.86v-5.21h.95v9Z"/>
    <text class="cls-2" transform="translate(534.09 367.8)"><tspan x="0" y="0">text</tspan></text>
    <rect class="cls-8" x="356.61" y="380.55" width="246.85" height="32"/>
    <text class="cls-1" transform="translate(366.61 399.8)"><tspan x="0" y="0">City</tspan></text>
    <path class="cls-10" d="M571.47,387.05h20s2,0,2,2v12s0,2-2,2h-20s-2,0-2-2v-12s0-2,2-2"/>
    <path class="cls-5" d="M580.28,399.55h-1.17l-4.75-7.56h-.05c.01.2.03.43.04.69.02.25.03.53.04.82.01.29.02.58.02.88v5.17h-.94v-9h1.16l4.73,7.53h.04c0-.14-.02-.35-.03-.61-.01-.27-.02-.55-.04-.86,0-.31-.01-.59-.01-.86v-5.21h.95v9Z"/>
    <path class="cls-5" d="M589.47,399.55h-1.17l-4.75-7.56h-.05c.01.2.03.43.04.69.02.25.03.53.04.82.01.29.02.58.02.88v5.17h-.94v-9h1.16l4.73,7.53h.04c0-.14-.02-.35-.03-.61-.01-.27-.02-.55-.04-.86,0-.31-.01-.59-.01-.86v-5.21h.95v9Z"/>
    <text class="cls-2" transform="translate(534.09 399.8)"><tspan x="0" y="0">text</tspan></text>
    <rect class="cls-8" x="356.61" y="412.55" width="246.85" height="32"/>
    <text class="cls-1" transform="translate(366.61 431.8)"><tspan x="0" y="0">State</tspan></text>
    <path class="cls-10" d="M571.47,419.05h20s2,0,2,2v12s0,2-2,2h-20s-2,0-2-2v-12s0-2,2-2"/>
    <path class="cls-5" d="M580.28,431.55h-1.17l-4.75-7.56h-.05c.01.2.03.43.04.69.02.25.03.53.04.82.01.29.02.58.02.88v5.17h-.94v-9h1.16l4.73,7.53h.04c0-.14-.02-.35-.03-.61-.01-.27-.02-.55-.04-.86,0-.31-.01-.59-.01-.86v-5.21h.95v9Z"/>
    <path class="cls-5" d="M589.47,431.55h-1.17l-4.75-7.56h-.05c.01.2.03.43.04.69.02.25.03.53.04.82.01.29.02.58.02.88v5.17h-.94v-9h1.16l4.73,7.53h.04c0-.14-.02-.35-.03-.61-.01-.27-.02-.55-.04-.86,0-.31-.01-.59-.01-.86v-5.21h.95v9Z"/>
    <text class="cls-2" transform="translate(534.09 431.8)"><tspan x="0" y="0">text</tspan></text>
    <rect class="cls-8" x="356.61" y="444.55" width="246.85" height="32"/>
    <text class="cls-1" transform="translate(366.61 463.8)"><tspan x="0" y="0">Country</tspan></text>
    <path class="cls-10" d="M571.47,451.05h20s2,0,2,2v12s0,2-2,2h-20s-2,0-2-2v-12s0-2,2-2"/>
    <path class="cls-5" d="M580.28,463.55h-1.17l-4.75-7.56h-.05c.01.2.03.43.04.69.02.25.03.53.04.82.01.29.02.58.02.88v5.17h-.94v-9h1.16l4.73,7.53h.04c0-.14-.02-.35-.03-.61-.01-.27-.02-.55-.04-.86,0-.31-.01-.59-.01-.86v-5.21h.95v9Z"/>
    <path class="cls-5" d="M589.47,463.55h-1.17l-4.75-7.56h-.05c.01.2.03.43.04.69.02.25.03.53.04.82.01.29.02.58.02.88v5.17h-.94v-9h1.16l4.73,7.53h.04c0-.14-.02-.35-.03-.61-.01-.27-.02-.55-.04-.86,0-.31-.01-.59-.01-.86v-5.21h.95v9Z"/>
    <text class="cls-2" transform="translate(534.09 463.8)"><tspan x="0" y="0">text</tspan></text>
    <rect class="cls-8" x="356.61" y="476.55" width="246.85" height="32"/>
    <text class="cls-1" transform="translate(366.61 495.8)"><tspan x="0" y="0">PhoneNumber</tspan></text>
    <path class="cls-10" d="M571.47,483.05h20s2,0,2,2v12s0,2-2,2h-20s-2,0-2-2v-12s0-2,2-2"/>
    <path class="cls-5" d="M580.28,495.55h-1.17l-4.75-7.56h-.05c.01.2.03.43.04.69.02.25.03.53.04.82.01.29.02.58.02.88v5.17h-.94v-9h1.16l4.73,7.53h.04c0-.14-.02-.35-.03-.61-.01-.27-.02-.55-.04-.86,0-.31-.01-.59-.01-.86v-5.21h.95v9Z"/>
    <path class="cls-5" d="M589.47,495.55h-1.17l-4.75-7.56h-.05c.01.2.03.43.04.69.02.25.03.53.04.82.01.29.02.58.02.88v5.17h-.94v-9h1.16l4.73,7.53h.04c0-.14-.02-.35-.03-.61-.01-.27-.02-.55-.04-.86,0-.31-.01-.59-.01-.86v-5.21h.95v9Z"/>
    <text class="cls-2" transform="translate(534.09 495.8)"><tspan x="0" y="0">text</tspan></text>
    <rect class="cls-7" x="699.18" y="124.55" width="273.79" height="32"/>
    <text class="cls-4" transform="translate(709.18 143.8)"><tspan x="0" y="0">TrafficIncidents</tspan></text>
    <rect class="cls-8" x="699.18" y="156.55" width="273.79" height="32"/>
    <text class="cls-1" transform="translate(709.18 175.8)"><tspan x="0" y="0">IncidentID</tspan></text>
    <path class="cls-5" d="M796.26,166.79c1.63,0,2.95,1.32,2.95,2.95s-1.32,2.95-2.95,2.95c-.39,0-.76-.08-1.1-.21l-.87.87h-.66v.98h-.98v.98h-1.97v-1.97l2.75-2.75c-.08-.28-.13-.57-.13-.86,0-1.63,1.32-2.95,2.95-2.95ZM796.26,165.8c-2.17,0-3.94,1.76-3.94,3.94,0,.18.01.36.04.54l-2.52,2.52c-.09.09-.14.22-.14.35v2.66c0,.27.22.49.49.49h2.95c.27,0,.49-.22.49-.49v-.49h.49c.27,0,.49-.22.49-.49v-.41l.82-.82c.27.06.54.09.82.09,2.17,0,3.94-1.76,3.94-3.94s-1.76-3.94-3.94-3.94ZM796.26,168.76c0,.54.44.98.98.98s.98-.44.98-.98-.44-.98-.98-.98-.98.44-.98.98Z"/>
    <text class="cls-2" transform="translate(936.81 175.8)"><tspan x="0" y="0">int</tspan></text>
    <rect class="cls-8" x="699.18" y="188.55" width="273.79" height="32"/>
    <text class="cls-1" transform="translate(709.18 207.8)"><tspan x="0" y="0">IncidentDateTime</tspan></text>
    <path class="cls-10" d="M940.97,195.05h20s2,0,2,2v12s0,2-2,2h-20s-2,0-2-2v-12s0-2,2-2"/>
    <path class="cls-5" d="M949.78,207.55h-1.17l-4.75-7.56h-.05c.01.2.03.43.04.69.02.25.03.53.04.82.01.29.02.58.02.88v5.17h-.94v-9h1.16l4.73,7.53h.04c0-.14-.02-.35-.03-.61-.01-.27-.02-.55-.04-.86,0-.31-.01-.59-.01-.86v-5.21h.95v9Z"/>
    <path class="cls-5" d="M958.97,207.55h-1.17l-4.75-7.56h-.05c.01.2.03.43.04.69.02.25.03.53.04.82.01.29.02.58.02.88v5.17h-.94v-9h1.16l4.73,7.53h.04c0-.14-.02-.35-.03-.61-.01-.27-.02-.55-.04-.86,0-.31-.01-.59-.01-.86v-5.21h.95v9Z"/>
    <text class="cls-2" transform="translate(872.61 207.8)"><tspan x="0" y="0">datetime</tspan></text>
    <rect class="cls-8" x="699.18" y="220.55" width="273.79" height="32"/>
    <text class="cls-1" transform="translate(709.18 239.8)"><tspan x="0" y="0">Location</tspan></text>
    <path class="cls-10" d="M940.97,227.05h20s2,0,2,2v12s0,2-2,2h-20s-2,0-2-2v-12s0-2,2-2"/>
    <path class="cls-5" d="M949.78,239.55h-1.17l-4.75-7.56h-.05c.01.2.03.43.04.69.02.25.03.53.04.82.01.29.02.58.02.88v5.17h-.94v-9h1.16l4.73,7.53h.04c0-.14-.02-.35-.03-.61-.01-.27-.02-.55-.04-.86,0-.31-.01-.59-.01-.86v-5.21h.95v9Z"/>
    <path class="cls-5" d="M958.97,239.55h-1.17l-4.75-7.56h-.05c.01.2.03.43.04.69.02.25.03.53.04.82.01.29.02.58.02.88v5.17h-.94v-9h1.16l4.73,7.53h.04c0-.14-.02-.35-.03-.61-.01-.27-.02-.55-.04-.86,0-.31-.01-.59-.01-.86v-5.21h.95v9Z"/>
    <text class="cls-2" transform="translate(903.6 239.8)"><tspan x="0" y="0">text</tspan></text>
    <rect class="cls-8" x="699.18" y="252.55" width="273.79" height="32"/>
    <text class="cls-1" transform="translate(709.18 271.8)"><tspan x="0" y="0">Description</tspan></text>
    <path class="cls-10" d="M940.97,259.05h20s2,0,2,2v12s0,2-2,2h-20s-2,0-2-2v-12s0-2,2-2"/>
    <path class="cls-5" d="M949.78,271.55h-1.17l-4.75-7.56h-.05c.01.2.03.43.04.69.02.25.03.53.04.82.01.29.02.58.02.88v5.17h-.94v-9h1.16l4.73,7.53h.04c0-.14-.02-.35-.03-.61-.01-.27-.02-.55-.04-.86,0-.31-.01-.59-.01-.86v-5.21h.95v9Z"/>
    <path class="cls-5" d="M958.97,271.55h-1.17l-4.75-7.56h-.05c.01.2.03.43.04.69.02.25.03.53.04.82.01.29.02.58.02.88v5.17h-.94v-9h1.16l4.73,7.53h.04c0-.14-.02-.35-.03-.61-.01-.27-.02-.55-.04-.86,0-.31-.01-.59-.01-.86v-5.21h.95v9Z"/>
    <text class="cls-2" transform="translate(903.6 271.8)"><tspan x="0" y="0">text</tspan></text>
    <rect class="cls-8" x="699.18" y="284.55" width="273.79" height="32"/>
    <text class="cls-1" transform="translate(709.18 303.8)"><tspan x="0" y="0">VehicleID</tspan></text>
    <path class="cls-10" d="M940.97,291.05h20s2,0,2,2v12s0,2-2,2h-20s-2,0-2-2v-12s0-2,2-2"/>
    <path class="cls-5" d="M949.78,303.55h-1.17l-4.75-7.56h-.05c.01.2.03.43.04.69.02.25.03.53.04.82.01.29.02.58.02.88v5.17h-.94v-9h1.16l4.73,7.53h.04c0-.14-.02-.35-.03-.61-.01-.27-.02-.55-.04-.86,0-.31-.01-.59-.01-.86v-5.21h.95v9Z"/>
    <path class="cls-5" d="M958.97,303.55h-1.17l-4.75-7.56h-.05c.01.2.03.43.04.69.02.25.03.53.04.82.01.29.02.58.02.88v5.17h-.94v-9h1.16l4.73,7.53h.04c0-.14-.02-.35-.03-.61-.01-.27-.02-.55-.04-.86,0-.31-.01-.59-.01-.86v-5.21h.95v9Z"/>
    <text class="cls-2" transform="translate(911.08 303.8)"><tspan x="0" y="0">int</tspan></text>
    <rect class="cls-8" x="699.18" y="316.55" width="273.79" height="32"/>
    <text class="cls-1" transform="translate(709.18 335.8)"><tspan x="0" y="0">OwnerID</tspan></text>
    <path class="cls-10" d="M940.97,323.05h20s2,0,2,2v12s0,2-2,2h-20s-2,0-2-2v-12s0-2,2-2"/>
    <path class="cls-5" d="M949.78,335.55h-1.17l-4.75-7.56h-.05c.01.2.03.43.04.69.02.25.03.53.04.82.01.29.02.58.02.88v5.17h-.94v-9h1.16l4.73,7.53h.04c0-.14-.02-.35-.03-.61-.01-.27-.02-.55-.04-.86,0-.31-.01-.59-.01-.86v-5.21h.95v9Z"/>
    <path class="cls-5" d="M958.97,335.55h-1.17l-4.75-7.56h-.05c.01.2.03.43.04.69.02.25.03.53.04.82.01.29.02.58.02.88v5.17h-.94v-9h1.16l4.73,7.53h.04c0-.14-.02-.35-.03-.61-.01-.27-.02-.55-.04-.86,0-.31-.01-.59-.01-.86v-5.21h.95v9Z"/>
    <text class="cls-2" transform="translate(911.08 335.8)"><tspan x="0" y="0">int</tspan></text>
    <rect class="cls-7" x="1068.7" y="121.06" width="253.65" height="32"/>
    <text class="cls-4" transform="translate(1078.7 140.31)"><tspan x="0" y="0">TrafficTickets</tspan></text>
    <rect class="cls-8" x="1068.7" y="153.06" width="253.65" height="32"/>
    <text class="cls-1" transform="translate(1078.7 172.31)"><tspan x="0" y="0">TicketID</tspan></text>
    <path class="cls-5" d="M1148.75,163.3c1.63,0,2.95,1.32,2.95,2.95s-1.32,2.95-2.95,2.95c-.39,0-.76-.08-1.1-.21l-.87.87h-.66v.98h-.98v.98h-1.97v-1.97l2.75-2.75c-.08-.28-.13-.57-.13-.86,0-1.63,1.32-2.95,2.95-2.95ZM1148.75,162.31c-2.17,0-3.94,1.76-3.94,3.94,0,.18.01.36.04.54l-2.52,2.52c-.09.09-.14.22-.14.35v2.66c0,.27.22.49.49.49h2.95c.27,0,.49-.22.49-.49v-.49h.49c.27,0,.49-.22.49-.49v-.41l.82-.82c.27.06.54.09.82.09,2.17,0,3.94-1.76,3.94-3.94s-1.76-3.94-3.94-3.94ZM1148.75,165.27c0,.54.44.98.98.98s.98-.44.98-.98-.44-.98-.98-.98-.98.44-.98.98Z"/>
    <text class="cls-2" transform="translate(1286.19 172.31)"><tspan x="0" y="0">int</tspan></text>
    <rect class="cls-8" x="1068.7" y="185.06" width="253.65" height="32"/>
    <text class="cls-1" transform="translate(1078.7 204.31)"><tspan x="0" y="0">IncidentID</tspan></text>
    <path class="cls-10" d="M1290.35,191.56h20s2,0,2,2v12s0,2-2,2h-20s-2,0-2-2v-12s0-2,2-2"/>
    <path class="cls-5" d="M1299.16,204.06h-1.17l-4.75-7.56h-.05c.01.2.03.43.04.69.02.25.03.53.04.82.01.29.02.58.02.88v5.17h-.94v-9h1.16l4.73,7.53h.04c0-.14-.02-.35-.03-.61-.01-.27-.02-.55-.04-.86,0-.31-.01-.59-.01-.86v-5.21h.95v9Z"/>
    <path class="cls-5" d="M1308.35,204.06h-1.17l-4.75-7.56h-.05c.01.2.03.43.04.69.02.25.03.53.04.82.01.29.02.58.02.88v5.17h-.94v-9h1.16l4.73,7.53h.04c0-.14-.02-.35-.03-.61-.01-.27-.02-.55-.04-.86,0-.31-.01-.59-.01-.86v-5.21h.95v9Z"/>
    <text class="cls-2" transform="translate(1260.46 204.31)"><tspan x="0" y="0">int</tspan></text>
    <rect class="cls-8" x="1068.7" y="217.06" width="253.65" height="32"/>
    <text class="cls-1" transform="translate(1078.7 236.31)"><tspan x="0" y="0">ViolationID</tspan></text>
    <path class="cls-10" d="M1290.35,223.56h20s2,0,2,2v12s0,2-2,2h-20s-2,0-2-2v-12s0-2,2-2"/>
    <path class="cls-5" d="M1299.16,236.06h-1.17l-4.75-7.56h-.05c.01.2.03.43.04.69.02.25.03.53.04.82.01.29.02.58.02.88v5.17h-.94v-9h1.16l4.73,7.53h.04c0-.14-.02-.35-.03-.61-.01-.27-.02-.55-.04-.86,0-.31-.01-.59-.01-.86v-5.21h.95v9Z"/>
    <path class="cls-5" d="M1308.35,236.06h-1.17l-4.75-7.56h-.05c.01.2.03.43.04.69.02.25.03.53.04.82.01.29.02.58.02.88v5.17h-.94v-9h1.16l4.73,7.53h.04c0-.14-.02-.35-.03-.61-.01-.27-.02-.55-.04-.86,0-.31-.01-.59-.01-.86v-5.21h.95v9Z"/>
    <text class="cls-2" transform="translate(1252.98 236.31)"><tspan x="0" y="0">text</tspan></text>
    <rect class="cls-8" x="1068.7" y="249.06" width="253.65" height="32"/>
    <text class="cls-1" transform="translate(1078.7 268.31)"><tspan x="0" y="0">Description</tspan></text>
    <text class="cls-2" transform="translate(1280.98 268.31)"><tspan x="0" y="0">text</tspan></text>
    <rect class="cls-8" x="1068.7" y="281.06" width="253.65" height="32"/>
    <text class="cls-1" transform="translate(1078.7 300.31)"><tspan x="0" y="0">Fine</tspan></text>
    <path class="cls-10" d="M1290.35,287.56h20s2,0,2,2v12s0,2-2,2h-20s-2,0-2-2v-12s0-2,2-2"/>
    <path class="cls-5" d="M1299.16,300.06h-1.17l-4.75-7.56h-.05c.01.2.03.43.04.69.02.25.03.53.04.82.01.29.02.58.02.88v5.17h-.94v-9h1.16l4.73,7.53h.04c0-.14-.02-.35-.03-.61-.01-.27-.02-.55-.04-.86,0-.31-.01-.59-.01-.86v-5.21h.95v9Z"/>
    <path class="cls-5" d="M1308.35,300.06h-1.17l-4.75-7.56h-.05c.01.2.03.43.04.69.02.25.03.53.04.82.01.29.02.58.02.88v5.17h-.94v-9h1.16l4.73,7.53h.04c0-.14-.02-.35-.03-.61-.01-.27-.02-.55-.04-.86,0-.31-.01-.59-.01-.86v-5.21h.95v9Z"/>
    <text class="cls-2" transform="translate(1186.71 300.31)"><tspan x="0" y="0">decimal(10,2)</tspan></text>
    <rect class="cls-8" x="1068.7" y="313.06" width="253.65" height="32"/>
    <text class="cls-1" transform="translate(1078.7 332.31)"><tspan x="0" y="0">IssuingOfficerID</tspan></text>
    <path class="cls-10" d="M1290.35,319.56h20s2,0,2,2v12s0,2-2,2h-20s-2,0-2-2v-12s0-2,2-2"/>
    <path class="cls-5" d="M1299.16,332.06h-1.17l-4.75-7.56h-.05c.01.2.03.43.04.69.02.25.03.53.04.82.01.29.02.58.02.88v5.17h-.94v-9h1.16l4.73,7.53h.04c0-.14-.02-.35-.03-.61-.01-.27-.02-.55-.04-.86,0-.31-.01-.59-.01-.86v-5.21h.95v9Z"/>
    <path class="cls-5" d="M1308.35,332.06h-1.17l-4.75-7.56h-.05c.01.2.03.43.04.69.02.25.03.53.04.82.01.29.02.58.02.88v5.17h-.94v-9h1.16l4.73,7.53h.04c0-.14-.02-.35-.03-.61-.01-.27-.02-.55-.04-.86,0-.31-.01-.59-.01-.86v-5.21h.95v9Z"/>
    <text class="cls-2" transform="translate(1260.46 332.31)"><tspan x="0" y="0">int</tspan></text>
    <rect class="cls-8" x="1068.7" y="345.06" width="253.65" height="32"/>
    <text class="cls-1" transform="translate(1078.7 364.31)"><tspan x="0" y="0">IssueDateTime</tspan></text>
    <path class="cls-10" d="M1290.35,351.56h20s2,0,2,2v12s0,2-2,2h-20s-2,0-2-2v-12s0-2,2-2"/>
    <path class="cls-5" d="M1299.16,364.06h-1.17l-4.75-7.56h-.05c.01.2.03.43.04.69.02.25.03.53.04.82.01.29.02.58.02.88v5.17h-.94v-9h1.16l4.73,7.53h.04c0-.14-.02-.35-.03-.61-.01-.27-.02-.55-.04-.86,0-.31-.01-.59-.01-.86v-5.21h.95v9Z"/>
    <path class="cls-5" d="M1308.35,364.06h-1.17l-4.75-7.56h-.05c.01.2.03.43.04.69.02.25.03.53.04.82.01.29.02.58.02.88v5.17h-.94v-9h1.16l4.73,7.53h.04c0-.14-.02-.35-.03-.61-.01-.27-.02-.55-.04-.86,0-.31-.01-.59-.01-.86v-5.21h.95v9Z"/>
    <text class="cls-2" transform="translate(1221.99 364.31)"><tspan x="0" y="0">datetime</tspan></text>
    <rect class="cls-8" x="1068.7" y="377.06" width="253.65" height="32"/>
    <text class="cls-1" transform="translate(1078.7 396.31)"><tspan x="0" y="0">PaymentStatus</tspan></text>
    <text class="cls-2" transform="translate(1280.98 396.31)"><tspan x="0" y="0">text</tspan></text>
    <rect class="cls-7" x="88.6" y="430.55" width="219.15" height="32"/>
    <text class="cls-4" transform="translate(98.6 449.8)"><tspan x="0" y="0">TrafficOfficers</tspan></text>
    <rect class="cls-8" x="88.6" y="462.55" width="219.15" height="32"/>
    <text class="cls-1" transform="translate(98.6 481.8)"><tspan x="0" y="0">OfficerID</tspan></text>
    <path class="cls-5" d="M178.74,472.79c1.63,0,2.95,1.32,2.95,2.95s-1.32,2.95-2.95,2.95c-.39,0-.76-.08-1.1-.21l-.87.87h-.66v.98h-.98v.98h-1.97v-1.97l2.75-2.75c-.08-.28-.13-.57-.13-.86,0-1.63,1.32-2.95,2.95-2.95ZM178.74,471.8c-2.17,0-3.94,1.76-3.94,3.94,0,.18.01.36.04.54l-2.52,2.52c-.09.09-.14.22-.14.35v2.66c0,.27.22.49.49.49h2.95c.27,0,.49-.22.49-.49v-.49h.49c.27,0,.49-.22.49-.49v-.41l.82-.82c.27.06.54.09.82.09,2.17,0,3.94-1.76,3.94-3.94s-1.76-3.94-3.94-3.94ZM178.74,474.76c0,.54.44.98.98.98s.98-.44.98-.98-.44-.98-.98-.98-.98.44-.98.98Z"/>
    <text class="cls-2" transform="translate(271.6 481.8)"><tspan x="0" y="0">int</tspan></text>
    <rect class="cls-8" x="88.6" y="494.55" width="219.15" height="32"/>
    <text class="cls-1" transform="translate(98.6 513.8)"><tspan x="0" y="0">FirstName</tspan></text>
    <path class="cls-10" d="M275.76,501.05h20s2,0,2,2v12s0,2-2,2h-20s-2,0-2-2v-12s0-2,2-2"/>
    <path class="cls-5" d="M284.57,513.55h-1.17l-4.75-7.56h-.05c.01.2.03.43.04.69.02.25.03.53.04.82.01.29.02.58.02.88v5.17h-.94v-9h1.16l4.73,7.53h.04c0-.14-.02-.35-.03-.61-.01-.27-.02-.55-.04-.86,0-.31-.01-.59-.01-.86v-5.21h.95v9Z"/>
    <path class="cls-5" d="M293.76,513.55h-1.17l-4.75-7.56h-.05c.01.2.03.43.04.69.02.25.03.53.04.82.01.29.02.58.02.88v5.17h-.94v-9h1.16l4.73,7.53h.04c0-.14-.02-.35-.03-.61-.01-.27-.02-.55-.04-.86,0-.31-.01-.59-.01-.86v-5.21h.95v9Z"/>
    <text class="cls-2" transform="translate(238.38 513.8)"><tspan x="0" y="0">text</tspan></text>
    <rect class="cls-8" x="88.6" y="526.55" width="219.15" height="32"/>
    <text class="cls-1" transform="translate(98.6 545.8)"><tspan x="0" y="0">LastName</tspan></text>
    <path class="cls-10" d="M275.76,533.05h20s2,0,2,2v12s0,2-2,2h-20s-2,0-2-2v-12s0-2,2-2"/>
    <path class="cls-5" d="M284.57,545.55h-1.17l-4.75-7.56h-.05c.01.2.03.43.04.69.02.25.03.53.04.82.01.29.02.58.02.88v5.17h-.94v-9h1.16l4.73,7.53h.04c0-.14-.02-.35-.03-.61-.01-.27-.02-.55-.04-.86,0-.31-.01-.59-.01-.86v-5.21h.95v9Z"/>
    <path class="cls-5" d="M293.76,545.55h-1.17l-4.75-7.56h-.05c.01.2.03.43.04.69.02.25.03.53.04.82.01.29.02.58.02.88v5.17h-.94v-9h1.16l4.73,7.53h.04c0-.14-.02-.35-.03-.61-.01-.27-.02-.55-.04-.86,0-.31-.01-.59-.01-.86v-5.21h.95v9Z"/>
    <text class="cls-2" transform="translate(238.38 545.8)"><tspan x="0" y="0">text</tspan></text>
    <rect class="cls-8" x="88.6" y="558.55" width="219.15" height="32"/>
    <text class="cls-1" transform="translate(98.6 577.8)"><tspan x="0" y="0">BadgeNumber</tspan></text>
    <path class="cls-10" d="M275.76,565.05h20s2,0,2,2v12s0,2-2,2h-20s-2,0-2-2v-12s0-2,2-2"/>
    <path class="cls-5" d="M284.57,577.55h-1.17l-4.75-7.56h-.05c.01.2.03.43.04.69.02.25.03.53.04.82.01.29.02.58.02.88v5.17h-.94v-9h1.16l4.73,7.53h.04c0-.14-.02-.35-.03-.61-.01-.27-.02-.55-.04-.86,0-.31-.01-.59-.01-.86v-5.21h.95v9Z"/>
    <path class="cls-5" d="M293.76,577.55h-1.17l-4.75-7.56h-.05c.01.2.03.43.04.69.02.25.03.53.04.82.01.29.02.58.02.88v5.17h-.94v-9h1.16l4.73,7.53h.04c0-.14-.02-.35-.03-.61-.01-.27-.02-.55-.04-.86,0-.31-.01-.59-.01-.86v-5.21h.95v9Z"/>
    <text class="cls-2" transform="translate(238.38 577.8)"><tspan x="0" y="0">text</tspan></text>
    <rect class="cls-8" x="88.6" y="590.55" width="219.15" height="32"/>
    <text class="cls-1" transform="translate(98.6 609.8)"><tspan x="0" y="0">Rank</tspan></text>
    <path class="cls-10" d="M275.76,597.05h20s2,0,2,2v12s0,2-2,2h-20s-2,0-2-2v-12s0-2,2-2"/>
    <path class="cls-5" d="M284.57,609.55h-1.17l-4.75-7.56h-.05c.01.2.03.43.04.69.02.25.03.53.04.82.01.29.02.58.02.88v5.17h-.94v-9h1.16l4.73,7.53h.04c0-.14-.02-.35-.03-.61-.01-.27-.02-.55-.04-.86,0-.31-.01-.59-.01-.86v-5.21h.95v9Z"/>
    <path class="cls-5" d="M293.76,609.55h-1.17l-4.75-7.56h-.05c.01.2.03.43.04.69.02.25.03.53.04.82.01.29.02.58.02.88v5.17h-.94v-9h1.16l4.73,7.53h.04c0-.14-.02-.35-.03-.61-.01-.27-.02-.55-.04-.86,0-.31-.01-.59-.01-.86v-5.21h.95v9Z"/>
    <text class="cls-2" transform="translate(238.38 609.8)"><tspan x="0" y="0">text</tspan></text>
    <rect class="cls-8" x="88.6" y="622.55" width="219.15" height="32"/>
    <text class="cls-1" transform="translate(98.6 641.8)"><tspan x="0" y="0">PhoneNumber</tspan></text>
    <path class="cls-10" d="M275.76,629.05h20s2,0,2,2v12s0,2-2,2h-20s-2,0-2-2v-12s0-2,2-2"/>
    <path class="cls-5" d="M284.57,641.55h-1.17l-4.75-7.56h-.05c.01.2.03.43.04.69.02.25.03.53.04.82.01.29.02.58.02.88v5.17h-.94v-9h1.16l4.73,7.53h.04c0-.14-.02-.35-.03-.61-.01-.27-.02-.55-.04-.86,0-.31-.01-.59-.01-.86v-5.21h.95v9Z"/>
    <path class="cls-5" d="M293.76,641.55h-1.17l-4.75-7.56h-.05c.01.2.03.43.04.69.02.25.03.53.04.82.01.29.02.58.02.88v5.17h-.94v-9h1.16l4.73,7.53h.04c0-.14-.02-.35-.03-.61-.01-.27-.02-.55-.04-.86,0-.31-.01-.59-.01-.86v-5.21h.95v9Z"/>
    <text class="cls-2" transform="translate(238.38 641.8)"><tspan x="0" y="0">text</tspan></text>
    <rect class="cls-8" x="88.6" y="654.55" width="219.15" height="32"/>
    <text class="cls-1" transform="translate(98.6 673.8)"><tspan x="0" y="0">Email</tspan></text>
    <path class="cls-10" d="M275.76,661.05h20s2,0,2,2v12s0,2-2,2h-20s-2,0-2-2v-12s0-2,2-2"/>
    <path class="cls-5" d="M284.57,673.55h-1.17l-4.75-7.56h-.05c.01.2.03.43.04.69.02.25.03.53.04.82.01.29.02.58.02.88v5.17h-.94v-9h1.16l4.73,7.53h.04c0-.14-.02-.35-.03-.61-.01-.27-.02-.55-.04-.86,0-.31-.01-.59-.01-.86v-5.21h.95v9Z"/>
    <path class="cls-5" d="M293.76,673.55h-1.17l-4.75-7.56h-.05c.01.2.03.43.04.69.02.25.03.53.04.82.01.29.02.58.02.88v5.17h-.94v-9h1.16l4.73,7.53h.04c0-.14-.02-.35-.03-.61-.01-.27-.02-.55-.04-.86,0-.31-.01-.59-.01-.86v-5.21h.95v9Z"/>
    <text class="cls-2" transform="translate(238.38 673.8)"><tspan x="0" y="0">text</tspan></text>
    <rect class="cls-7" x="356.61" y="558.55" width="278.24" height="32"/>
    <text class="cls-4" transform="translate(366.61 577.8)"><tspan x="0" y="0">Payments</tspan></text>
    <rect class="cls-8" x="356.61" y="590.55" width="278.24" height="32"/>
    <text class="cls-1" transform="translate(366.61 609.8)"><tspan x="0" y="0">PaymentID</tspan></text>
    <path class="cls-5" d="M447.15,600.79c1.63,0,2.95,1.32,2.95,2.95s-1.32,2.95-2.95,2.95c-.39,0-.76-.08-1.1-.21l-.87.87h-.66v.98h-.98v.98h-1.97v-1.97l2.75-2.75c-.08-.28-.13-.57-.13-.86,0-1.63,1.32-2.95,2.95-2.95ZM447.15,599.8c-2.17,0-3.94,1.76-3.94,3.94,0,.18.01.36.04.54l-2.52,2.52c-.09.09-.14.22-.14.35v2.66c0,.27.22.49.49.49h2.95c.27,0,.49-.22.49-.49v-.49h.49c.27,0,.49-.22.49-.49v-.41l.82-.82c.27.06.54.09.82.09,2.17,0,3.94-1.76,3.94-3.94s-1.76-3.94-3.94-3.94ZM447.15,602.76c0,.54.44.98.98.98s.98-.44.98-.98-.44-.98-.98-.98-.98.44-.98.98Z"/>
    <text class="cls-2" transform="translate(598.7 609.8)"><tspan x="0" y="0">int</tspan></text>
    <rect class="cls-8" x="356.61" y="622.55" width="278.24" height="32"/>
    <text class="cls-1" transform="translate(366.61 641.8)"><tspan x="0" y="0">TicketID</tspan></text>
    <path class="cls-10" d="M602.86,629.05h20s2,0,2,2v12s0,2-2,2h-20s-2,0-2-2v-12s0-2,2-2"/>
    <path class="cls-5" d="M611.67,641.55h-1.17l-4.75-7.56h-.05c.01.2.03.43.04.69.02.25.03.53.04.82.01.29.02.58.02.88v5.17h-.94v-9h1.16l4.73,7.53h.04c0-.14-.02-.35-.03-.61-.01-.27-.02-.55-.04-.86,0-.31-.01-.59-.01-.86v-5.21h.95v9Z"/>
    <path class="cls-5" d="M620.86,641.55h-1.17l-4.75-7.56h-.05c.01.2.03.43.04.69.02.25.03.53.04.82.01.29.02.58.02.88v5.17h-.94v-9h1.16l4.73,7.53h.04c0-.14-.02-.35-.03-.61-.01-.27-.02-.55-.04-.86,0-.31-.01-.59-.01-.86v-5.21h.95v9Z"/>
    <text class="cls-2" transform="translate(572.97 641.8)"><tspan x="0" y="0">int</tspan></text>
    <rect class="cls-8" x="356.61" y="654.55" width="278.24" height="32"/>
    <text class="cls-1" transform="translate(366.61 673.8)"><tspan x="0" y="0">PaymentDateTime</tspan></text>
    <path class="cls-10" d="M602.86,661.05h20s2,0,2,2v12s0,2-2,2h-20s-2,0-2-2v-12s0-2,2-2"/>
    <path class="cls-5" d="M611.67,673.55h-1.17l-4.75-7.56h-.05c.01.2.03.43.04.69.02.25.03.53.04.82.01.29.02.58.02.88v5.17h-.94v-9h1.16l4.73,7.53h.04c0-.14-.02-.35-.03-.61-.01-.27-.02-.55-.04-.86,0-.31-.01-.59-.01-.86v-5.21h.95v9Z"/>
    <path class="cls-5" d="M620.86,673.55h-1.17l-4.75-7.56h-.05c.01.2.03.43.04.69.02.25.03.53.04.82.01.29.02.58.02.88v5.17h-.94v-9h1.16l4.73,7.53h.04c0-.14-.02-.35-.03-.61-.01-.27-.02-.55-.04-.86,0-.31-.01-.59-.01-.86v-5.21h.95v9Z"/>
    <text class="cls-2" transform="translate(534.49 673.8)"><tspan x="0" y="0">datetime</tspan></text>
    <rect class="cls-8" x="356.61" y="686.55" width="278.24" height="32"/>
    <text class="cls-1" transform="translate(366.61 705.8)"><tspan x="0" y="0">Amount</tspan></text>
    <path class="cls-10" d="M602.86,693.05h20s2,0,2,2v12s0,2-2,2h-20s-2,0-2-2v-12s0-2,2-2"/>
    <path class="cls-5" d="M611.67,705.55h-1.17l-4.75-7.56h-.05c.01.2.03.43.04.69.02.25.03.53.04.82.01.29.02.58.02.88v5.17h-.94v-9h1.16l4.73,7.53h.04c0-.14-.02-.35-.03-.61-.01-.27-.02-.55-.04-.86,0-.31-.01-.59-.01-.86v-5.21h.95v9Z"/>
    <path class="cls-5" d="M620.86,705.55h-1.17l-4.75-7.56h-.05c.01.2.03.43.04.69.02.25.03.53.04.82.01.29.02.58.02.88v5.17h-.94v-9h1.16l4.73,7.53h.04c0-.14-.02-.35-.03-.61-.01-.27-.02-.55-.04-.86,0-.31-.01-.59-.01-.86v-5.21h.95v9Z"/>
    <text class="cls-2" transform="translate(499.22 705.8)"><tspan x="0" y="0">decimal(10,2)</tspan></text>
    <rect class="cls-8" x="356.61" y="718.55" width="278.24" height="32"/>
    <text class="cls-1" transform="translate(366.61 737.8)"><tspan x="0" y="0">PaymentMethod</tspan></text>
    <path class="cls-10" d="M602.86,725.05h20s2,0,2,2v12s0,2-2,2h-20s-2,0-2-2v-12s0-2,2-2"/>
    <path class="cls-5" d="M611.67,737.55h-1.17l-4.75-7.56h-.05c.01.2.03.43.04.69.02.25.03.53.04.82.01.29.02.58.02.88v5.17h-.94v-9h1.16l4.73,7.53h.04c0-.14-.02-.35-.03-.61-.01-.27-.02-.55-.04-.86,0-.31-.01-.59-.01-.86v-5.21h.95v9Z"/>
    <path class="cls-5" d="M620.86,737.55h-1.17l-4.75-7.56h-.05c.01.2.03.43.04.69.02.25.03.53.04.82.01.29.02.58.02.88v5.17h-.94v-9h1.16l4.73,7.53h.04c0-.14-.02-.35-.03-.61-.01-.27-.02-.55-.04-.86,0-.31-.01-.59-.01-.86v-5.21h.95v9Z"/>
    <text class="cls-2" transform="translate(565.48 737.8)"><tspan x="0" y="0">text</tspan></text>
    <rect class="cls-7" x="684.86" y="398.55" width="302.43" height="32"/>
    <text class="cls-4" transform="translate(694.86 417.8)"><tspan x="0" y="0">TicketHistories</tspan></text>
    <rect class="cls-8" x="684.86" y="430.55" width="302.43" height="32"/>
    <text class="cls-1" transform="translate(694.86 449.8)"><tspan x="0" y="0">HistoryID</tspan></text>
    <path class="cls-5" d="M774.71,440.79c1.63,0,2.95,1.32,2.95,2.95s-1.32,2.95-2.95,2.95c-.39,0-.76-.08-1.1-.21l-.87.87h-.66v.98h-.98v.98h-1.97v-1.97l2.75-2.75c-.08-.28-.13-.57-.13-.86,0-1.63,1.32-2.95,2.95-2.95ZM774.71,439.8c-2.17,0-3.94,1.76-3.94,3.94,0,.18.01.36.04.54l-2.52,2.52c-.09.09-.14.22-.14.35v2.66c0,.27.22.49.49.49h2.95c.27,0,.49-.22.49-.49v-.49h.49c.27,0,.49-.22.49-.49v-.41l.82-.82c.27.06.54.09.82.09,2.17,0,3.94-1.76,3.94-3.94s-1.76-3.94-3.94-3.94ZM774.71,442.76c0,.54.44.98.98.98s.98-.44.98-.98-.44-.98-.98-.98-.98.44-.98.98Z"/>
    <text class="cls-2" transform="translate(951.13 449.8)"><tspan x="0" y="0">int</tspan></text>
    <rect class="cls-8" x="684.86" y="462.55" width="302.43" height="32"/>
    <text class="cls-1" transform="translate(694.86 481.8)"><tspan x="0" y="0">TicketID</tspan></text>
    <path class="cls-10" d="M955.29,469.05h20s2,0,2,2v12s0,2-2,2h-20s-2,0-2-2v-12s0-2,2-2"/>
    <path class="cls-5" d="M964.1,481.55h-1.17l-4.75-7.56h-.05c.01.2.03.43.04.69.02.25.03.53.04.82.01.29.02.58.02.88v5.17h-.94v-9h1.16l4.73,7.53h.04c0-.14-.02-.35-.03-.61-.01-.27-.02-.55-.04-.86,0-.31-.01-.59-.01-.86v-5.21h.95v9Z"/>
    <path class="cls-5" d="M973.29,481.55h-1.17l-4.75-7.56h-.05c.01.2.03.43.04.69.02.25.03.53.04.82.01.29.02.58.02.88v5.17h-.94v-9h1.16l4.73,7.53h.04c0-.14-.02-.35-.03-.61-.01-.27-.02-.55-.04-.86,0-.31-.01-.59-.01-.86v-5.21h.95v9Z"/>
    <text class="cls-2" transform="translate(925.4 481.8)"><tspan x="0" y="0">int</tspan></text>
    <rect class="cls-8" x="684.86" y="494.55" width="302.43" height="32"/>
    <text class="cls-1" transform="translate(694.86 513.8)"><tspan x="0" y="0">ModificationDateTime</tspan></text>
    <path class="cls-10" d="M955.29,501.05h20s2,0,2,2v12s0,2-2,2h-20s-2,0-2-2v-12s0-2,2-2"/>
    <path class="cls-5" d="M964.1,513.55h-1.17l-4.75-7.56h-.05c.01.2.03.43.04.69.02.25.03.53.04.82.01.29.02.58.02.88v5.17h-.94v-9h1.16l4.73,7.53h.04c0-.14-.02-.35-.03-.61-.01-.27-.02-.55-.04-.86,0-.31-.01-.59-.01-.86v-5.21h.95v9Z"/>
    <path class="cls-5" d="M973.29,513.55h-1.17l-4.75-7.56h-.05c.01.2.03.43.04.69.02.25.03.53.04.82.01.29.02.58.02.88v5.17h-.94v-9h1.16l4.73,7.53h.04c0-.14-.02-.35-.03-.61-.01-.27-.02-.55-.04-.86,0-.31-.01-.59-.01-.86v-5.21h.95v9Z"/>
    <text class="cls-2" transform="translate(886.93 513.8)"><tspan x="0" y="0">datetime</tspan></text>
    <rect class="cls-8" x="684.86" y="526.55" width="302.43" height="32"/>
    <text class="cls-1" transform="translate(694.86 545.8)"><tspan x="0" y="0">ModifiedBy</tspan></text>
    <path class="cls-10" d="M955.29,533.05h20s2,0,2,2v12s0,2-2,2h-20s-2,0-2-2v-12s0-2,2-2"/>
    <path class="cls-5" d="M964.1,545.55h-1.17l-4.75-7.56h-.05c.01.2.03.43.04.69.02.25.03.53.04.82.01.29.02.58.02.88v5.17h-.94v-9h1.16l4.73,7.53h.04c0-.14-.02-.35-.03-.61-.01-.27-.02-.55-.04-.86,0-.31-.01-.59-.01-.86v-5.21h.95v9Z"/>
    <path class="cls-5" d="M973.29,545.55h-1.17l-4.75-7.56h-.05c.01.2.03.43.04.69.02.25.03.53.04.82.01.29.02.58.02.88v5.17h-.94v-9h1.16l4.73,7.53h.04c0-.14-.02-.35-.03-.61-.01-.27-.02-.55-.04-.86,0-.31-.01-.59-.01-.86v-5.21h.95v9Z"/>
    <text class="cls-2" transform="translate(917.92 545.8)"><tspan x="0" y="0">text</tspan></text>
    <rect class="cls-8" x="684.86" y="558.55" width="302.43" height="32"/>
    <text class="cls-1" transform="translate(694.86 577.8)"><tspan x="0" y="0">ModificationType</tspan></text>
    <path class="cls-10" d="M955.29,565.05h20s2,0,2,2v12s0,2-2,2h-20s-2,0-2-2v-12s0-2,2-2"/>
    <path class="cls-5" d="M964.1,577.55h-1.17l-4.75-7.56h-.05c.01.2.03.43.04.69.02.25.03.53.04.82.01.29.02.58.02.88v5.17h-.94v-9h1.16l4.73,7.53h.04c0-.14-.02-.35-.03-.61-.01-.27-.02-.55-.04-.86,0-.31-.01-.59-.01-.86v-5.21h.95v9Z"/>
    <path class="cls-5" d="M973.29,577.55h-1.17l-4.75-7.56h-.05c.01.2.03.43.04.69.02.25.03.53.04.82.01.29.02.58.02.88v5.17h-.94v-9h1.16l4.73,7.53h.04c0-.14-.02-.35-.03-.61-.01-.27-.02-.55-.04-.86,0-.31-.01-.59-.01-.86v-5.21h.95v9Z"/>
    <text class="cls-2" transform="translate(917.92 577.8)"><tspan x="0" y="0">text</tspan></text>
    <rect class="cls-8" x="684.86" y="590.55" width="302.43" height="32"/>
    <text class="cls-1" transform="translate(694.86 609.8)"><tspan x="0" y="0">OldValue</tspan></text>
    <path class="cls-10" d="M955.29,597.05h20s2,0,2,2v12s0,2-2,2h-20s-2,0-2-2v-12s0-2,2-2"/>
    <path class="cls-5" d="M964.1,609.55h-1.17l-4.75-7.56h-.05c.01.2.03.43.04.69.02.25.03.53.04.82.01.29.02.58.02.88v5.17h-.94v-9h1.16l4.73,7.53h.04c0-.14-.02-.35-.03-.61-.01-.27-.02-.55-.04-.86,0-.31-.01-.59-.01-.86v-5.21h.95v9Z"/>
    <path class="cls-5" d="M973.29,609.55h-1.17l-4.75-7.56h-.05c.01.2.03.43.04.69.02.25.03.53.04.82.01.29.02.58.02.88v5.17h-.94v-9h1.16l4.73,7.53h.04c0-.14-.02-.35-.03-.61-.01-.27-.02-.55-.04-.86,0-.31-.01-.59-.01-.86v-5.21h.95v9Z"/>
    <text class="cls-2" transform="translate(917.92 609.8)"><tspan x="0" y="0">text</tspan></text>
    <rect class="cls-8" x="684.86" y="622.55" width="302.43" height="32"/>
    <text class="cls-1" transform="translate(694.86 641.8)"><tspan x="0" y="0">NewValue</tspan></text>
    <path class="cls-10" d="M955.29,629.05h20s2,0,2,2v12s0,2-2,2h-20s-2,0-2-2v-12s0-2,2-2"/>
    <path class="cls-5" d="M964.1,641.55h-1.17l-4.75-7.56h-.05c.01.2.03.43.04.69.02.25.03.53.04.82.01.29.02.58.02.88v5.17h-.94v-9h1.16l4.73,7.53h.04c0-.14-.02-.35-.03-.61-.01-.27-.02-.55-.04-.86,0-.31-.01-.59-.01-.86v-5.21h.95v9Z"/>
    <path class="cls-5" d="M973.29,641.55h-1.17l-4.75-7.56h-.05c.01.2.03.43.04.69.02.25.03.53.04.82.01.29.02.58.02.88v5.17h-.94v-9h1.16l4.73,7.53h.04c0-.14-.02-.35-.03-.61-.01-.27-.02-.55-.04-.86,0-.31-.01-.59-.01-.86v-5.21h.95v9Z"/>
    <text class="cls-2" transform="translate(917.92 641.8)"><tspan x="0" y="0">text</tspan></text>
    <rect class="cls-7" x="1107.99" y="448.59" width="199.23" height="32"/>
    <text class="cls-4" transform="translate(1117.99 467.84)"><tspan x="0" y="0">Violations</tspan></text>
    <rect class="cls-8" x="1107.99" y="480.59" width="199.23" height="32"/>
    <text class="cls-1" transform="translate(1117.99 499.84)"><tspan x="0" y="0">ViolationID</tspan></text>
    <path class="cls-5" d="M1210.97,490.83c1.63,0,2.95,1.32,2.95,2.95s-1.32,2.95-2.95,2.95c-.39,0-.76-.08-1.1-.21l-.87.87h-.66v.98h-.98v.98h-1.97v-1.97l2.75-2.75c-.08-.28-.13-.57-.13-.86,0-1.63,1.32-2.95,2.95-2.95ZM1210.97,489.84c-2.17,0-3.94,1.76-3.94,3.94,0,.18.01.36.04.54l-2.52,2.52c-.09.09-.14.22-.14.35v2.66c0,.27.22.49.49.49h2.95c.27,0,.49-.22.49-.49v-.49h.49c.27,0,.49-.22.49-.49v-.41l.82-.82c.27.06.54.09.82.09,2.17,0,3.94-1.76,3.94-3.94s-1.76-3.94-3.94-3.94ZM1210.97,492.8c0,.54.44.98.98.98s.98-.44.98-.98-.44-.98-.98-.98-.98.44-.98.98Z"/>
    <text class="cls-2" transform="translate(1271.07 499.84)"><tspan x="0" y="0">int</tspan></text>
    <rect class="cls-8" x="1107.99" y="512.59" width="199.23" height="32"/>
    <text class="cls-1" transform="translate(1117.99 531.84)"><tspan x="0" y="0">Name</tspan></text>
    <path class="cls-10" d="M1275.22,519.09h20s2,0,2,2v12s0,2-2,2h-20s-2,0-2-2v-12s0-2,2-2"/>
    <path class="cls-5" d="M1284.03,531.59h-1.17l-4.75-7.56h-.05c.01.2.03.43.04.69.02.25.03.53.04.82.01.29.02.58.02.88v5.17h-.94v-9h1.16l4.73,7.53h.04c0-.14-.02-.35-.03-.61-.01-.27-.02-.55-.04-.86,0-.31-.01-.59-.01-.86v-5.21h.95v9Z"/>
    <path class="cls-5" d="M1293.22,531.59h-1.17l-4.75-7.56h-.05c.01.2.03.43.04.69.02.25.03.53.04.82.01.29.02.58.02.88v5.17h-.94v-9h1.16l4.73,7.53h.04c0-.14-.02-.35-.03-.61-.01-.27-.02-.55-.04-.86,0-.31-.01-.59-.01-.86v-5.21h.95v9Z"/>
    <text class="cls-2" transform="translate(1237.85 531.84)"><tspan x="0" y="0">text</tspan></text>
    <rect class="cls-8" x="1107.99" y="544.59" width="199.23" height="32"/>
    <text class="cls-1" transform="translate(1117.99 563.84)"><tspan x="0" y="0">Description</tspan></text>
    <path class="cls-10" d="M1275.22,551.09h20s2,0,2,2v12s0,2-2,2h-20s-2,0-2-2v-12s0-2,2-2"/>
    <path class="cls-5" d="M1284.03,563.59h-1.17l-4.75-7.56h-.05c.01.2.03.43.04.69.02.25.03.53.04.82.01.29.02.58.02.88v5.17h-.94v-9h1.16l4.73,7.53h.04c0-.14-.02-.35-.03-.61-.01-.27-.02-.55-.04-.86,0-.31-.01-.59-.01-.86v-5.21h.95v9Z"/>
    <path class="cls-5" d="M1293.22,563.59h-1.17l-4.75-7.56h-.05c.01.2.03.43.04.69.02.25.03.53.04.82.01.29.02.58.02.88v5.17h-.94v-9h1.16l4.73,7.53h.04c0-.14-.02-.35-.03-.61-.01-.27-.02-.55-.04-.86,0-.31-.01-.59-.01-.86v-5.21h.95v9Z"/>
    <text class="cls-2" transform="translate(1237.85 563.84)"><tspan x="0" y="0">text</tspan></text>
  </g>
</svg>